<svg width="40" height="36" viewBox="0 0 40 36" fill="none" xmlns="http://www.w3.org/2000/svg">
<rect x="0.5" y="0.5" width="39" height="35" rx="1.5" fill="white" stroke="#E8E8E8"/>
<path fill-rule="evenodd" clip-rule="evenodd" d="M13.3301 8.76001C12.6578 8.76001 12.0601 9.3103 12.0601 10.13V12.45C12.0601 12.6129 12.1198 12.8823 12.2581 13.1905C12.3936 13.4924 12.5738 13.7631 12.7504 13.9396L12.7637 13.9533L16.6037 17.9933C16.6163 18.0066 16.6284 18.0203 16.64 18.0345C16.9028 18.3549 17.1414 18.7775 17.3153 19.2131C17.488 19.6456 17.6201 20.1484 17.6201 20.63V25.98C17.6201 26.9693 18.755 27.5824 19.6002 27.0655L21.0034 26.1598C21.3514 25.9352 21.8156 26.0352 22.0402 26.3833C22.2648 26.7313 22.1648 27.1955 21.8168 27.4201L20.4068 28.3302L20.3945 28.3379C18.6202 29.435 16.1201 28.2285 16.1201 25.98V20.63C16.1201 20.4016 16.0521 20.0944 15.9223 19.7694C15.7983 19.4589 15.639 19.1851 15.4958 19.0049L11.6825 14.9931C11.3523 14.6606 11.0802 14.2294 10.8895 13.8045C10.7003 13.3827 10.5601 12.8971 10.5601 12.45V10.13C10.5601 8.52971 11.7823 7.26001 13.3301 7.26001H26.6701C28.1943 7.26001 29.4401 8.50582 29.4401 10.03V12.25C29.4401 12.7975 29.2722 13.3616 29.0548 13.8377C28.8366 14.3159 28.5373 14.7734 28.2104 15.1003C27.9175 15.3932 27.4426 15.3932 27.1497 15.1003C26.8568 14.8074 26.8568 14.3326 27.1497 14.0397C27.3228 13.8666 27.5285 13.5692 27.6903 13.2148C27.853 12.8584 27.9401 12.5125 27.9401 12.25V10.03C27.9401 9.33423 27.3658 8.76001 26.6701 8.76001H13.3301Z" fill="black"/>
<path fill-rule="evenodd" clip-rule="evenodd" d="M24.88 16.75C22.6742 16.75 20.88 18.5442 20.88 20.75C20.88 21.5003 21.091 22.2135 21.4575 22.8049L21.4636 22.8148L21.4635 22.8148C22.1539 23.9683 23.4249 24.75 24.88 24.75C26.3376 24.75 27.6064 23.9762 28.2952 22.8169L28.3 22.8089L28.3 22.8089C28.6703 22.2031 28.88 21.4978 28.88 20.75C28.88 18.5442 27.0858 16.75 24.88 16.75ZM19.38 20.75C19.38 17.7158 21.8458 15.25 24.88 15.25C27.9142 15.25 30.38 17.7158 30.38 20.75C30.38 21.7805 30.0907 22.7538 29.5824 23.5871C28.6307 25.1856 26.8807 26.25 24.88 26.25C22.8772 26.25 21.1297 25.174 20.1794 23.5901C19.6679 22.7626 19.38 21.7777 19.38 20.75Z" fill="black"/>
<path fill-rule="evenodd" clip-rule="evenodd" d="M23.1098 18.9496C23.4027 18.6568 23.8776 18.6568 24.1705 18.9497L26.6805 21.4597C26.9734 21.7526 26.9734 22.2274 26.6805 22.5203C26.3876 22.8132 25.9127 22.8132 25.6198 22.5203L23.1098 20.0103C22.8169 19.7174 22.8169 19.2425 23.1098 18.9496Z" fill="black"/>
<path fill-rule="evenodd" clip-rule="evenodd" d="M26.6604 18.9797C26.9533 19.2726 26.9533 19.7474 26.6604 20.0403L24.1504 22.5503C23.8576 22.8432 23.3827 22.8432 23.0898 22.5504C22.7969 22.2575 22.7969 21.7826 23.0898 21.4897L25.5998 18.9797C25.8927 18.6868 26.3676 18.6868 26.6604 18.9797Z" fill="black"/>
<path fill-rule="evenodd" clip-rule="evenodd" d="M13.3301 8.75C12.6578 8.75 12.0601 9.30029 12.0601 10.12V12.45C12.0601 12.6042 12.1201 12.8721 12.2614 13.1857C12.3992 13.4915 12.5812 13.767 12.7556 13.9449L12.7637 13.9532L12.7637 13.9533L16.6037 17.9933C16.6184 18.0088 16.6324 18.0248 16.6457 18.0415C16.8988 18.3578 17.1358 18.7765 17.3108 19.2111C17.4841 19.6416 17.6201 20.1456 17.6201 20.63V25.98C17.6201 26.9693 18.755 27.5824 19.6002 27.0655L21.0034 26.1598C21.0121 26.1542 21.0209 26.1488 21.0298 26.1435C21.1216 26.0895 21.2651 25.9431 21.3903 25.7014C21.4989 25.4916 21.5562 25.2817 21.5678 25.1267C21.0028 24.7096 20.5336 24.1826 20.178 23.5877C19.6695 22.7543 19.3801 21.7808 19.3801 20.75C19.3801 17.7158 21.8458 15.25 24.8801 15.25C25.1577 15.25 25.4329 15.2706 25.7019 15.3127L27.1617 14.0271C27.3345 13.8452 27.5333 13.551 27.6899 13.2068C27.853 12.8485 27.9401 12.5024 27.9401 12.24V10.02C27.9401 9.32422 27.3658 8.75 26.6701 8.75H13.3301ZM10.5601 10.12C10.5601 8.5197 11.7823 7.25 13.3301 7.25H26.6701C28.1943 7.25 29.4401 8.49582 29.4401 10.02V12.24C29.4401 12.7875 29.2721 13.3515 29.0552 13.8282C28.837 14.3075 28.539 14.7652 28.2156 15.0951C28.2028 15.1081 28.1895 15.1207 28.1757 15.1329L26.4157 16.6828C26.2321 16.8446 25.9812 16.9065 25.7434 16.8489C25.4754 16.7839 25.185 16.75 24.8801 16.75C22.6743 16.75 20.8801 18.5442 20.8801 20.75C20.8801 21.4978 21.0898 22.2031 21.46 22.8089L21.4641 22.8156L21.4641 22.8157C21.7753 23.3372 22.2009 23.7773 22.712 24.0905C22.9344 24.2269 23.0701 24.4691 23.0701 24.73V25.07C23.0701 25.522 22.9273 25.9952 22.7223 26.3911C22.5225 26.7771 22.216 27.1805 21.8054 27.4274L20.4068 28.3302L20.3945 28.3379C18.6202 29.435 16.1201 28.2285 16.1201 25.98V20.63C16.1201 20.4044 16.051 20.0985 15.9193 19.7714C15.7946 19.4617 15.635 19.1856 15.4925 19.0015L11.6802 14.9906C11.3565 14.6591 11.0851 14.2265 10.8938 13.8018C10.705 13.3829 10.5601 12.8958 10.5601 12.45V10.12Z" fill="black"/>
</svg>
